<?xml version="1.0" standalone="no"?>
<!DOCTYPE svg PUBLIC "-//W3C//DTD SVG 20010904//EN"
 "http://www.w3.org/TR/2001/REC-SVG-20010904/DTD/svg10.dtd">
<svg version="1.0" xmlns="http://www.w3.org/2000/svg"
 width="500.000000pt" height="500.000000pt" viewBox="0 0 500.000000 500.000000"
 preserveAspectRatio="xMidYMid meet">
<metadata>
Created by potrace 1.14, written by Peter Selinger 2001-2017
</metadata>
<g transform="translate(0.000000,500.000000) scale(0.100000,-0.100000)"
fill="#000000" stroke="none">
<path d="M0 2500 l0 -2500 2500 0 2500 0 0 2500 0 2500 -2500 0 -2500 0 0
-2500z m3283 2349 c-4 -37 -2 -53 7 -59 22 -14 47 7 61 47 23 75 43 81 60 21
23 -87 24 -87 47 -35 35 79 78 59 70 -33 -3 -34 -2 -35 34 -38 31 -3 53 -17
119 -78 79 -72 134 -108 190 -124 24 -7 31 -3 59 36 17 25 49 74 70 110 42 73
57 67 39 -16 -7 -34 -29 -76 -65 -126 l-55 -76 164 -161 c220 -218 354 -375
434 -507 14 -22 44 -136 82 -309 33 -151 63 -276 67 -280 3 -3 19 9 35 28 l28
34 10 -26 c19 -50 30 -180 21 -257 -6 -54 -4 -95 6 -145 7 -38 17 -97 22 -130
5 -33 10 -49 11 -35 l1 25 20 -30 c26 -40 26 -75 0 -75 -24 0 -27 -32 -5 -50
19 -16 19 -67 0 -100 -9 -15 -14 -53 -15 -95 l0 -70 27 39 c27 37 28 38 34 15
4 -13 7 -90 8 -171 1 -146 1 -148 26 -164 23 -15 25 -22 25 -93 0 -98 -18
-171 -86 -361 -167 -465 -391 -747 -724 -913 -120 -59 -139 -76 -226 -208
l-63 -96 -98 -6 c-130 -8 -274 -46 -375 -99 -80 -41 -86 -43 -158 -40 -94 4
-234 -18 -370 -59 -58 -17 -116 -33 -130 -36 -27 -5 -477 64 -645 99 -55 11
-138 33 -185 50 -99 34 -141 42 -174 34 -13 -3 -61 -30 -107 -61 -88 -58 -126
-71 -191 -62 -52 7 -88 33 -112 81 -16 33 -17 44 -7 95 7 37 8 67 2 82 -13 34
-52 68 -81 71 -21 3 -26 -2 -28 -25 -3 -20 -8 -27 -20 -25 -14 3 -17 14 -14
65 2 54 0 63 -20 77 -12 9 -26 16 -30 16 -12 0 -10 -42 3 -79 16 -46 3 -54
-59 -36 -64 19 -119 66 -144 122 -21 47 -17 78 14 130 l19 32 -41 53 c-22 29
-65 102 -95 162 -31 59 -74 129 -95 155 -54 64 -260 380 -260 399 0 12 -47
193 -66 250 -3 11 -12 9 -40 -7 -44 -26 -46 -26 -42 2 2 17 11 23 35 25 37 4
37 3 22 35 -7 16 -17 23 -28 20 -34 -9 -56 34 -56 107 0 64 -1 68 -28 80 -42
18 -105 104 -123 168 -24 82 -15 181 24 268 17 38 41 106 52 151 44 176 125
368 244 575 50 85 56 103 56 152 0 178 106 371 309 561 199 187 296 290 334
356 l38 66 112 49 c95 41 184 93 273 159 34 25 56 9 52 -38 -2 -23 2 -42 8
-44 6 -2 33 27 61 65 113 155 270 229 432 203 90 -15 109 -30 113 -88 3 -48 3
-48 38 -47 99 2 300 28 290 38 -14 14 -13 29 5 52 12 15 16 16 24 5 11 -17 31
-6 31 18 0 10 6 24 14 30 34 28 158 52 346 66 l195 15 20 -24 c26 -33 47 -21
80 45 14 27 30 49 35 49 5 0 6 -22 3 -51z"/>
<path d="M3300 3873 c-218 -3 -537 -17 -1265 -54 l-600 -30 -60 -29 c-73 -35
-90 -48 -99 -77 -11 -34 17 -81 88 -152 l63 -62 279 -3 c248 -2 291 -4 384
-25 363 -78 568 -278 660 -644 52 -208 85 -584 78 -898 -3 -162 -5 -178 -29
-229 -63 -135 -175 -192 -404 -205 -173 -9 -226 -16 -281 -36 -79 -30 -98 -56
-102 -144 -4 -66 -1 -80 23 -120 55 -95 175 -145 351 -145 287 0 585 161 739
400 113 173 137 348 89 650 -8 52 -55 259 -104 460 -104 425 -119 501 -127
670 -11 231 32 285 279 349 65 17 137 40 160 52 93 46 147 122 155 221 l6 58
-59 -2 c-33 -1 -133 -4 -224 -5z"/>
</g>
</svg>
